{
	"asset":{
		"generator":"Khronos glTF Blender I/O v4.0.44",
		"version":"2.0"
	},
	"scene":0,
	"scenes":[
		{
			"name":"Scene",
			"nodes":[
				0
			]
		}
	],
	"nodes":[
		{
			"mesh":0,
			"name":"Cube"
		}
	],
	"animations":[
		{
			"channels":[
				{
					"sampler":0,
					"target":{
						"node":0,
						"path":"translation"
					}
				},
				{
					"sampler":1,
					"target":{
						"node":0,
						"path":"rotation"
					}
				}
			],
			"name":"CubeAction",
			"samplers":[
				{
					"input":5,
					"interpolation":"LINEAR",
					"output":6
				},
				{
					"input":7,
					"interpolation":"LINEAR",
					"output":8
				}
			]
		}
	],
	"materials":[
		{
			"doubleSided":true,
			"name":"Material",
			"pbrMetallicRoughness":{}
		}
	],
	"meshes":[
		{
			"name":"Cube",
			"primitives":[
				{
					"attributes":{
						"COLOR_0":0,
						"POSITION":1,
						"NORMAL":2,
						"TEXCOORD_0":3
					},
					"indices":4,
					"material":0
				}
			]
		}
	],
	"accessors":[
		{
			"bufferView":0,
			"componentType":5126,
			"count":54,
			"type":"VEC4"
		},
		{
			"bufferView":1,
			"componentType":5126,
			"count":54,
			"max":[
				0.36771678924560547,
				1.3342952728271484,
				0.3929920196533203
			],
			"min":[
				-0.37934255599975586,
				-1.069324016571045,
				-0.39641475677490234
			],
			"type":"VEC3"
		},
		{
			"bufferView":2,
			"componentType":5126,
			"count":54,
			"type":"VEC3"
		},
		{
			"bufferView":3,
			"componentType":5126,
			"count":54,
			"type":"VEC2"
		},
		{
			"bufferView":4,
			"componentType":5123,
			"count":96,
			"type":"SCALAR"
		},
		{
			"bufferView":5,
			"componentType":5126,
			"count":2,
			"max":[
				13.333333333333334
			],
			"min":[
				0
			],
			"type":"SCALAR"
		},
		{
			"bufferView":6,
			"componentType":5126,
			"count":2,
			"type":"VEC3"
		},
		{
			"bufferView":7,
			"componentType":5126,
			"count":201,
			"max":[
				13.333333333333334
			],
			"min":[
				0
			],
			"type":"SCALAR"
		},
		{
			"bufferView":8,
			"componentType":5126,
			"count":201,
			"type":"VEC4"
		}
	],
	"bufferViews":[
		{
			"buffer":0,
			"byteLength":864,
			"byteOffset":0,
			"target":34962
		},
		{
			"buffer":0,
			"byteLength":648,
			"byteOffset":864,
			"target":34962
		},
		{
			"buffer":0,
			"byteLength":648,
			"byteOffset":1512,
			"target":34962
		},
		{
			"buffer":0,
			"byteLength":432,
			"byteOffset":2160,
			"target":34962
		},
		{
			"buffer":0,
			"byteLength":192,
			"byteOffset":2592,
			"target":34963
		},
		{
			"buffer":0,
			"byteLength":8,
			"byteOffset":2784
		},
		{
			"buffer":0,
			"byteLength":24,
			"byteOffset":2792
		},
		{
			"buffer":0,
			"byteLength":804,
			"byteOffset":2816
		},
		{
			"buffer":0,
			"byteLength":3216,
			"byteOffset":3620
		}
	],
	"buffers":[
		{
			"byteLength":6836,
			"uri":"Milk%20box.bin"
		}
	]
}
